<svg xmlns="http://www.w3.org/2000/svg" width="20" height="20" xml:space="preserve"><path fill="#666" d="m18.777 19.944-7.333-7.278c-.556.5-1.222.834-1.944 1.111-.722.278-1.556.389-2.333.389-2 0-3.667-.722-5.055-2.11-1.445-1.333-2.111-3-2.111-5S.667 3.444 2.111 2 5.166-.111 7.166-.111c1.945 0 3.611.667 5 2.111 1.39 1.444 2.057 3.056 2.057 5.056 0 .778-.111 1.556-.389 2.333a8.784 8.784 0 0 1-1.168 2.111L20 18.723l-1.223 1.221zM7.111 12.5c1.5 0 2.777-.556 3.833-1.611C12 9.833 12.556 8.556 12.556 7.056S12 4.278 10.944 3.222 8.611 1.611 7.111 1.611s-2.833.556-3.889 1.611-1.555 2.334-1.555 3.834.556 2.778 1.611 3.833C4.333 11.944 5.611 12.5 7.111 12.5z"/></svg>